<mxfile host="app.diagrams.net" modified="2024-06-05T14:43:29.430Z" agent="Mozilla/5.0 (Windows NT 10.0; Win64; x64) AppleWebKit/537.36 (KHTML, like Gecko) Chrome/125.0.0.0 Safari/537.36 Edg/125.0.0.0" etag="BEZFKgX2H0luX7tyK4LB" version="24.4.14" type="onedrive">
  <diagram name="ページ1" id="batayLsr0PzhofUS-v-4">
    <mxGraphModel grid="1" page="1" gridSize="10" guides="1" tooltips="1" connect="1" arrows="1" fold="1" pageScale="1" pageWidth="827" pageHeight="1169" math="0" shadow="0">
      <root>
        <mxCell id="0" />
        <mxCell id="1" parent="0" />
        <mxCell id="rc7bfIDK09oqVwaIP6-f-11" style="edgeStyle=orthogonalEdgeStyle;rounded=0;orthogonalLoop=1;jettySize=auto;html=1;exitX=0.5;exitY=1;exitDx=0;exitDy=0;entryX=0.5;entryY=0;entryDx=0;entryDy=0;" edge="1" parent="1" source="rc7bfIDK09oqVwaIP6-f-2" target="rc7bfIDK09oqVwaIP6-f-3">
          <mxGeometry relative="1" as="geometry" />
        </mxCell>
        <mxCell id="rc7bfIDK09oqVwaIP6-f-2" value="fibo_m(n,a1 =&lt;span style=&quot;background-color: initial;&quot;&gt;&amp;nbsp;1,&lt;/span&gt;&lt;div&gt;&lt;span style=&quot;background-color: initial;&quot;&gt;a2 =0)関数&lt;/span&gt;&lt;/div&gt;&lt;div&gt;&lt;span style=&quot;background-color: initial;&quot;&gt;開始&lt;/span&gt;&lt;/div&gt;" style="rounded=0;whiteSpace=wrap;html=1;" vertex="1" parent="1">
          <mxGeometry x="320" y="40" width="120" height="60" as="geometry" />
        </mxCell>
        <mxCell id="rc7bfIDK09oqVwaIP6-f-12" style="edgeStyle=orthogonalEdgeStyle;rounded=0;orthogonalLoop=1;jettySize=auto;html=1;exitX=0.5;exitY=1;exitDx=0;exitDy=0;entryX=0.5;entryY=0;entryDx=0;entryDy=0;" edge="1" parent="1" source="rc7bfIDK09oqVwaIP6-f-3" target="rc7bfIDK09oqVwaIP6-f-4">
          <mxGeometry relative="1" as="geometry" />
        </mxCell>
        <mxCell id="rc7bfIDK09oqVwaIP6-f-3" value="global num2" style="rounded=1;whiteSpace=wrap;html=1;" vertex="1" parent="1">
          <mxGeometry x="320" y="120" width="120" height="60" as="geometry" />
        </mxCell>
        <mxCell id="rc7bfIDK09oqVwaIP6-f-13" style="edgeStyle=orthogonalEdgeStyle;rounded=0;orthogonalLoop=1;jettySize=auto;html=1;exitX=0.5;exitY=1;exitDx=0;exitDy=0;entryX=0.5;entryY=0;entryDx=0;entryDy=0;" edge="1" parent="1" source="rc7bfIDK09oqVwaIP6-f-4" target="rc7bfIDK09oqVwaIP6-f-5">
          <mxGeometry relative="1" as="geometry" />
        </mxCell>
        <mxCell id="rc7bfIDK09oqVwaIP6-f-18" style="edgeStyle=orthogonalEdgeStyle;rounded=0;orthogonalLoop=1;jettySize=auto;html=1;exitX=0;exitY=0.5;exitDx=0;exitDy=0;entryX=0;entryY=0.5;entryDx=0;entryDy=0;" edge="1" parent="1" source="rc7bfIDK09oqVwaIP6-f-4" target="rc7bfIDK09oqVwaIP6-f-9">
          <mxGeometry relative="1" as="geometry" />
        </mxCell>
        <mxCell id="rc7bfIDK09oqVwaIP6-f-4" value="if n &amp;lt; 1" style="rhombus;whiteSpace=wrap;html=1;" vertex="1" parent="1">
          <mxGeometry x="315" y="200" width="130" height="80" as="geometry" />
        </mxCell>
        <mxCell id="rc7bfIDK09oqVwaIP6-f-14" style="edgeStyle=orthogonalEdgeStyle;rounded=0;orthogonalLoop=1;jettySize=auto;html=1;exitX=0.5;exitY=1;exitDx=0;exitDy=0;entryX=0.5;entryY=0;entryDx=0;entryDy=0;" edge="1" parent="1" source="rc7bfIDK09oqVwaIP6-f-5" target="rc7bfIDK09oqVwaIP6-f-7">
          <mxGeometry relative="1" as="geometry" />
        </mxCell>
        <mxCell id="rc7bfIDK09oqVwaIP6-f-5" value="　num2 +=1&amp;nbsp; &amp;nbsp;" style="rounded=1;whiteSpace=wrap;html=1;" vertex="1" parent="1">
          <mxGeometry x="320" y="300" width="120" height="60" as="geometry" />
        </mxCell>
        <mxCell id="rc7bfIDK09oqVwaIP6-f-15" style="edgeStyle=orthogonalEdgeStyle;rounded=0;orthogonalLoop=1;jettySize=auto;html=1;exitX=0.5;exitY=1;exitDx=0;exitDy=0;entryX=0.5;entryY=0;entryDx=0;entryDy=0;" edge="1" parent="1" source="rc7bfIDK09oqVwaIP6-f-7" target="rc7bfIDK09oqVwaIP6-f-9">
          <mxGeometry relative="1" as="geometry" />
        </mxCell>
        <mxCell id="rc7bfIDK09oqVwaIP6-f-7" value="　return a1&amp;nbsp;&amp;nbsp;" style="rounded=1;whiteSpace=wrap;html=1;" vertex="1" parent="1">
          <mxGeometry x="320" y="380" width="120" height="60" as="geometry" />
        </mxCell>
        <mxCell id="rc7bfIDK09oqVwaIP6-f-17" style="edgeStyle=orthogonalEdgeStyle;rounded=0;orthogonalLoop=1;jettySize=auto;html=1;exitX=0.5;exitY=1;exitDx=0;exitDy=0;entryX=0.5;entryY=0;entryDx=0;entryDy=0;" edge="1" parent="1" source="rc7bfIDK09oqVwaIP6-f-8" target="rc7bfIDK09oqVwaIP6-f-10">
          <mxGeometry relative="1" as="geometry" />
        </mxCell>
        <mxCell id="rc7bfIDK09oqVwaIP6-f-8" value="return fibo_m(n-1,a1+a2,a1)" style="rounded=1;whiteSpace=wrap;html=1;" vertex="1" parent="1">
          <mxGeometry x="320" y="540" width="120" height="60" as="geometry" />
        </mxCell>
        <mxCell id="rc7bfIDK09oqVwaIP6-f-16" style="edgeStyle=orthogonalEdgeStyle;rounded=0;orthogonalLoop=1;jettySize=auto;html=1;exitX=0.5;exitY=1;exitDx=0;exitDy=0;entryX=0.5;entryY=0;entryDx=0;entryDy=0;" edge="1" parent="1" source="rc7bfIDK09oqVwaIP6-f-9" target="rc7bfIDK09oqVwaIP6-f-8">
          <mxGeometry relative="1" as="geometry" />
        </mxCell>
        <mxCell id="rc7bfIDK09oqVwaIP6-f-9" value="　num2 +=1&amp;nbsp; &amp;nbsp;" style="rounded=1;whiteSpace=wrap;html=1;" vertex="1" parent="1">
          <mxGeometry x="320" y="460" width="120" height="60" as="geometry" />
        </mxCell>
        <mxCell id="rc7bfIDK09oqVwaIP6-f-10" value="終了" style="rounded=0;whiteSpace=wrap;html=1;" vertex="1" parent="1">
          <mxGeometry x="320" y="620" width="120" height="60" as="geometry" />
        </mxCell>
        <mxCell id="rc7bfIDK09oqVwaIP6-f-19" value="False" style="text;html=1;align=center;verticalAlign=middle;resizable=0;points=[];autosize=1;strokeColor=none;fillColor=none;" vertex="1" parent="1">
          <mxGeometry x="275" y="198" width="50" height="30" as="geometry" />
        </mxCell>
        <mxCell id="rc7bfIDK09oqVwaIP6-f-20" value="True" style="text;html=1;align=center;verticalAlign=middle;resizable=0;points=[];autosize=1;strokeColor=none;fillColor=none;" vertex="1" parent="1">
          <mxGeometry x="375" y="268" width="50" height="30" as="geometry" />
        </mxCell>
      </root>
    </mxGraphModel>
  </diagram>
</mxfile>
